<svg xmlns="http://www.w3.org/2000/svg" xmlns:xlink="http://www.w3.org/1999/xlink" width="18" height="18" viewBox="0 0 18 18"><defs><path id="fk9oa" d="M656.001 1954A9 9 0 0 1 647 1963a9.001 9.001 0 1 1 0-18.002 9.001 9.001 0 0 1 9.001 9zm-3.898-3.075c-.54-.539-1.61-.34-2.394.443l-3.838 3.838-1.8-1.801a1.214 1.214 0 0 0-1.717 1.716l2.468 2.468a1.2 1.2 0 0 0 .346.23c.007.007.01.017.018.024.539.539 1.61.34 2.394-.444l4.08-4.08c.783-.783.982-1.855.443-2.394z"/></defs><g><g transform="translate(-638 -1945)"><use fill="#e67624" xlink:href="#fk9oa"/></g></g></svg>